<mxfile host="app.diagrams.net" agent="Mozilla/5.0 (Windows NT 10.0; Win64; x64) AppleWebKit/537.36 (KHTML, like Gecko) Chrome/136.0.0.0 Safari/537.36 Edg/136.0.0.0" version="27.0.6">
  <diagram name="Page-1" id="JM3Yqq2xJO6eoPgr7hrh">
    <mxGraphModel dx="2068" dy="1140" grid="1" gridSize="10" guides="1" tooltips="1" connect="1" arrows="1" fold="1" page="1" pageScale="1" pageWidth="850" pageHeight="1100" math="0" shadow="0">
      <root>
        <mxCell id="0" />
        <mxCell id="1" parent="0" />
        <mxCell id="n3LbRHd9huFzIVp2TdFG-1" value="Radar Parameters" style="html=1;outlineConnect=0;whiteSpace=wrap;fillColor=#a0522d;shape=mxgraph.archimate3.application;appType=artifact;archiType=square;fontColor=#ffffff;strokeColor=#6D1F00;" vertex="1" parent="1">
          <mxGeometry x="820" y="250" width="150" height="30" as="geometry" />
        </mxCell>
        <mxCell id="n3LbRHd9huFzIVp2TdFG-2" value="AI Ground Facilities" style="html=1;outlineConnect=0;whiteSpace=wrap;fillColor=#837500;shape=mxgraph.archimate3.application;appType=facility;archiType=square;verticalAlign=top;fontColor=#FFFFFF;strokeColor=light-dark(#B09500, #fff700);" vertex="1" parent="1">
          <mxGeometry x="930" y="460" width="830" height="770" as="geometry" />
        </mxCell>
        <mxCell id="n3LbRHd9huFzIVp2TdFG-3" value="Target Area" style="html=1;outlineConnect=0;whiteSpace=wrap;fillColor=#a0522d;shape=mxgraph.archimate3.application;appType=artifact;archiType=square;fontColor=#ffffff;strokeColor=#6D1F00;" vertex="1" parent="1">
          <mxGeometry x="920" y="120" width="150" height="30" as="geometry" />
        </mxCell>
        <mxCell id="n3LbRHd9huFzIVp2TdFG-4" value="Route Plan" style="html=1;outlineConnect=0;whiteSpace=wrap;fillColor=#a0522d;shape=mxgraph.archimate3.application;appType=artifact;archiType=square;fontColor=#ffffff;strokeColor=#6D1F00;" vertex="1" parent="1">
          <mxGeometry x="1245" y="160" width="150" height="30" as="geometry" />
        </mxCell>
        <mxCell id="n3LbRHd9huFzIVp2TdFG-5" value="External RAW data" style="html=1;outlineConnect=0;whiteSpace=wrap;fillColor=#a0522d;shape=mxgraph.archimate3.application;appType=artifact;archiType=square;fontColor=#ffffff;strokeColor=#6D1F00;" vertex="1" parent="1">
          <mxGeometry x="770" y="590" width="150" height="30" as="geometry" />
        </mxCell>
        <mxCell id="n3LbRHd9huFzIVp2TdFG-6" value="Raw data processing" style="html=1;outlineConnect=0;whiteSpace=wrap;fillColor=#600035;shape=mxgraph.archimate3.application;appType=func;archiType=rounded;fontColor=#ffffff;strokeColor=#A50040;verticalAlign=top;" vertex="1" parent="1">
          <mxGeometry x="970" y="670" width="210" height="190" as="geometry" />
        </mxCell>
        <mxCell id="n3LbRHd9huFzIVp2TdFG-7" value="External &lt;br&gt;raw data source&amp;nbsp;" style="html=1;outlineConnect=0;whiteSpace=wrap;shape=mxgraph.archimate3.application;appType=node;archiType=square;fillColor=#76608a;strokeColor=#432D57;fontColor=#ffffff;" vertex="1" parent="1">
          <mxGeometry x="770" y="480" width="150" height="50" as="geometry" />
        </mxCell>
        <mxCell id="n3LbRHd9huFzIVp2TdFG-8" value="Datasource Connection" style="html=1;outlineConnect=0;whiteSpace=wrap;fillColor=#d80073;shape=mxgraph.archimate3.application;appType=func;archiType=rounded;fontColor=#ffffff;strokeColor=#A50040;" vertex="1" parent="1">
          <mxGeometry x="980" y="700" width="190" height="30" as="geometry" />
        </mxCell>
        <mxCell id="n3LbRHd9huFzIVp2TdFG-9" value="Data ingestion and storage" style="html=1;outlineConnect=0;whiteSpace=wrap;fillColor=#d80073;shape=mxgraph.archimate3.application;appType=func;archiType=rounded;fontColor=#ffffff;strokeColor=#A50040;" vertex="1" parent="1">
          <mxGeometry x="980" y="740" width="190" height="30" as="geometry" />
        </mxCell>
        <mxCell id="n3LbRHd9huFzIVp2TdFG-10" value="AI based Pre-processing" style="html=1;outlineConnect=0;whiteSpace=wrap;fillColor=#d80073;shape=mxgraph.archimate3.application;appType=func;archiType=rounded;fontColor=#ffffff;strokeColor=#A50040;" vertex="1" parent="1">
          <mxGeometry x="980" y="780" width="190" height="30" as="geometry" />
        </mxCell>
        <mxCell id="n3LbRHd9huFzIVp2TdFG-11" value="Orchestration and Monitoring" style="html=1;outlineConnect=0;whiteSpace=wrap;fillColor=#d80073;shape=mxgraph.archimate3.application;appType=func;archiType=rounded;fontColor=#ffffff;strokeColor=#A50040;" vertex="1" parent="1">
          <mxGeometry x="980" y="820" width="190" height="30" as="geometry" />
        </mxCell>
        <mxCell id="n3LbRHd9huFzIVp2TdFG-12" value="Produces" style="edgeStyle=orthogonalEdgeStyle;rounded=0;orthogonalLoop=1;jettySize=auto;html=1;strokeColor=#1818FF;strokeWidth=4;endArrow=openThin;endFill=0;" edge="1" parent="1" source="n3LbRHd9huFzIVp2TdFG-24" target="n3LbRHd9huFzIVp2TdFG-22">
          <mxGeometry y="25" relative="1" as="geometry">
            <mxPoint as="offset" />
          </mxGeometry>
        </mxCell>
        <mxCell id="n3LbRHd9huFzIVp2TdFG-13" value="Supports" style="edgeStyle=orthogonalEdgeStyle;rounded=0;orthogonalLoop=1;jettySize=auto;html=1;entryX=0;entryY=0.5;entryDx=0;entryDy=0;entryPerimeter=0;strokeColor=#1818FF;strokeWidth=4;endArrow=openThin;endFill=0;" edge="1" parent="1" source="n3LbRHd9huFzIVp2TdFG-6" target="n3LbRHd9huFzIVp2TdFG-24">
          <mxGeometry x="-0.1349" relative="1" as="geometry">
            <mxPoint as="offset" />
          </mxGeometry>
        </mxCell>
        <mxCell id="n3LbRHd9huFzIVp2TdFG-14" style="edgeStyle=orthogonalEdgeStyle;rounded=0;orthogonalLoop=1;jettySize=auto;html=1;exitX=1;exitY=0.5;exitDx=0;exitDy=0;exitPerimeter=0;" edge="1" parent="1" source="n3LbRHd9huFzIVp2TdFG-73" target="n3LbRHd9huFzIVp2TdFG-22">
          <mxGeometry relative="1" as="geometry" />
        </mxCell>
        <mxCell id="n3LbRHd9huFzIVp2TdFG-15" style="edgeStyle=orthogonalEdgeStyle;rounded=0;orthogonalLoop=1;jettySize=auto;html=1;" edge="1" parent="1" source="n3LbRHd9huFzIVp2TdFG-16" target="n3LbRHd9huFzIVp2TdFG-34">
          <mxGeometry relative="1" as="geometry" />
        </mxCell>
        <mxCell id="n3LbRHd9huFzIVp2TdFG-16" value="Scenario Class" style="html=1;outlineConnect=0;whiteSpace=wrap;fillColor=#a0522d;shape=mxgraph.archimate3.application;appType=artifact;archiType=square;fontColor=#ffffff;strokeColor=#6D1F00;" vertex="1" parent="1">
          <mxGeometry x="1370" y="1152.5" width="150" height="30" as="geometry" />
        </mxCell>
        <mxCell id="n3LbRHd9huFzIVp2TdFG-17" style="edgeStyle=orthogonalEdgeStyle;rounded=0;orthogonalLoop=1;jettySize=auto;html=1;entryX=0;entryY=0.5;entryDx=0;entryDy=0;entryPerimeter=0;exitX=1;exitY=0.5;exitDx=0;exitDy=0;exitPerimeter=0;" edge="1" parent="1" source="n3LbRHd9huFzIVp2TdFG-22" target="n3LbRHd9huFzIVp2TdFG-16">
          <mxGeometry relative="1" as="geometry" />
        </mxCell>
        <mxCell id="n3LbRHd9huFzIVp2TdFG-18" value="Mission Planning" style="html=1;outlineConnect=0;whiteSpace=wrap;fillColor=#6a00ff;shape=mxgraph.archimate3.application;appType=func;archiType=rounded;strokeColor=#3700CC;fontColor=#ffffff;" vertex="1" parent="1">
          <mxGeometry x="1100" y="120" width="125" height="30" as="geometry" />
        </mxCell>
        <mxCell id="n3LbRHd9huFzIVp2TdFG-19" style="edgeStyle=orthogonalEdgeStyle;rounded=0;orthogonalLoop=1;jettySize=auto;html=1;" edge="1" parent="1" source="n3LbRHd9huFzIVp2TdFG-3" target="n3LbRHd9huFzIVp2TdFG-18">
          <mxGeometry relative="1" as="geometry" />
        </mxCell>
        <mxCell id="n3LbRHd9huFzIVp2TdFG-20" style="edgeStyle=orthogonalEdgeStyle;rounded=0;orthogonalLoop=1;jettySize=auto;html=1;entryX=0.5;entryY=0;entryDx=0;entryDy=0;entryPerimeter=0;exitX=1;exitY=0.5;exitDx=0;exitDy=0;exitPerimeter=0;" edge="1" parent="1" source="n3LbRHd9huFzIVp2TdFG-18" target="n3LbRHd9huFzIVp2TdFG-4">
          <mxGeometry relative="1" as="geometry" />
        </mxCell>
        <mxCell id="n3LbRHd9huFzIVp2TdFG-21" value="Acquisition Flight" style="html=1;outlineConnect=0;whiteSpace=wrap;fillColor=#6a00ff;shape=mxgraph.archimate3.application;appType=func;archiType=rounded;strokeColor=#3700CC;fontColor=#ffffff;" vertex="1" parent="1">
          <mxGeometry x="1240" y="215" width="160" height="30" as="geometry" />
        </mxCell>
        <mxCell id="n3LbRHd9huFzIVp2TdFG-22" value="&lt;span style=&quot;color: rgb(18, 18, 18);&quot;&gt;Scenario Identification Model&lt;/span&gt;" style="html=1;outlineConnect=0;whiteSpace=wrap;fillColor=#f0a30a;shape=mxgraph.archimate3.application;appType=sysSw;archiType=square;fontColor=#000000;strokeColor=#BD7000;" vertex="1" parent="1">
          <mxGeometry x="1160" y="1130" width="150" height="75" as="geometry" />
        </mxCell>
        <mxCell id="n3LbRHd9huFzIVp2TdFG-23" value="" style="group" vertex="1" connectable="0" parent="1">
          <mxGeometry x="1130" y="890" width="210" height="200" as="geometry" />
        </mxCell>
        <mxCell id="n3LbRHd9huFzIVp2TdFG-24" value="Scenario identification&lt;div&gt;&lt;br&gt;&lt;/div&gt;" style="html=1;outlineConnect=0;whiteSpace=wrap;fillColor=#600035;shape=mxgraph.archimate3.application;appType=func;archiType=rounded;fontColor=#ffffff;strokeColor=#A50040;verticalAlign=top;" vertex="1" parent="n3LbRHd9huFzIVp2TdFG-23">
          <mxGeometry width="210" height="200" as="geometry" />
        </mxCell>
        <mxCell id="n3LbRHd9huFzIVp2TdFG-25" value="Preprocessing" style="html=1;outlineConnect=0;whiteSpace=wrap;fillColor=#e3c800;shape=mxgraph.archimate3.application;appType=func;archiType=rounded;fontColor=#000000;strokeColor=#B09500;" vertex="1" parent="n3LbRHd9huFzIVp2TdFG-23">
          <mxGeometry x="10" y="30" width="190" height="30" as="geometry" />
        </mxCell>
        <mxCell id="n3LbRHd9huFzIVp2TdFG-26" value="Algorithm selection" style="html=1;outlineConnect=0;whiteSpace=wrap;fillColor=#e3c800;shape=mxgraph.archimate3.application;appType=func;archiType=rounded;fontColor=#000000;strokeColor=#B09500;" vertex="1" parent="n3LbRHd9huFzIVp2TdFG-23">
          <mxGeometry x="10" y="70" width="190" height="30" as="geometry" />
        </mxCell>
        <mxCell id="n3LbRHd9huFzIVp2TdFG-27" value="Training" style="html=1;outlineConnect=0;whiteSpace=wrap;fillColor=#e3c800;shape=mxgraph.archimate3.application;appType=func;archiType=rounded;fontColor=#000000;strokeColor=#B09500;" vertex="1" parent="n3LbRHd9huFzIVp2TdFG-23">
          <mxGeometry x="10" y="110" width="190" height="30" as="geometry" />
        </mxCell>
        <mxCell id="n3LbRHd9huFzIVp2TdFG-28" value="Validation" style="html=1;outlineConnect=0;whiteSpace=wrap;fillColor=#e3c800;shape=mxgraph.archimate3.application;appType=func;archiType=rounded;fontColor=#000000;strokeColor=#B09500;" vertex="1" parent="n3LbRHd9huFzIVp2TdFG-23">
          <mxGeometry x="10" y="150" width="190" height="30" as="geometry" />
        </mxCell>
        <mxCell id="n3LbRHd9huFzIVp2TdFG-29" value="Hosts" style="edgeStyle=orthogonalEdgeStyle;rounded=0;orthogonalLoop=1;jettySize=auto;html=1;strokeColor=#1818FF;strokeWidth=4;endArrow=openThin;endFill=0;" edge="1" parent="1" source="n3LbRHd9huFzIVp2TdFG-6" target="n3LbRHd9huFzIVp2TdFG-22">
          <mxGeometry relative="1" as="geometry">
            <Array as="points">
              <mxPoint x="1040" y="1140" />
            </Array>
          </mxGeometry>
        </mxCell>
        <mxCell id="n3LbRHd9huFzIVp2TdFG-30" value="Manouvres" style="edgeStyle=orthogonalEdgeStyle;rounded=0;orthogonalLoop=1;jettySize=auto;html=1;strokeColor=#1818FF;strokeWidth=4;endArrow=openThin;endFill=0;" edge="1" parent="1" source="n3LbRHd9huFzIVp2TdFG-21" target="n3LbRHd9huFzIVp2TdFG-54">
          <mxGeometry x="-0.2" y="-10" relative="1" as="geometry">
            <mxPoint x="580" y="365" as="sourcePoint" />
            <mxPoint x="1230" y="240" as="targetPoint" />
            <Array as="points">
              <mxPoint x="1180" y="230" />
              <mxPoint x="1180" y="230" />
            </Array>
            <mxPoint as="offset" />
          </mxGeometry>
        </mxCell>
        <mxCell id="n3LbRHd9huFzIVp2TdFG-31" style="edgeStyle=orthogonalEdgeStyle;rounded=0;orthogonalLoop=1;jettySize=auto;html=1;" edge="1" parent="1" source="n3LbRHd9huFzIVp2TdFG-32" target="n3LbRHd9huFzIVp2TdFG-76">
          <mxGeometry relative="1" as="geometry">
            <Array as="points">
              <mxPoint x="1500" y="705" />
              <mxPoint x="1500" y="705" />
            </Array>
          </mxGeometry>
        </mxCell>
        <mxCell id="n3LbRHd9huFzIVp2TdFG-32" value="Settings Optimisation Model" style="html=1;outlineConnect=0;whiteSpace=wrap;fillColor=#f0a30a;shape=mxgraph.archimate3.application;appType=sysSw;archiType=square;fontColor=#000000;strokeColor=#BD7000;" vertex="1" parent="1">
          <mxGeometry x="1580" y="690" width="150" height="75" as="geometry" />
        </mxCell>
        <mxCell id="n3LbRHd9huFzIVp2TdFG-33" style="edgeStyle=orthogonalEdgeStyle;rounded=0;orthogonalLoop=1;jettySize=auto;html=1;" edge="1" parent="1" source="n3LbRHd9huFzIVp2TdFG-34" target="n3LbRHd9huFzIVp2TdFG-71">
          <mxGeometry relative="1" as="geometry">
            <Array as="points">
              <mxPoint x="1430" y="825" />
              <mxPoint x="1430" y="825" />
            </Array>
          </mxGeometry>
        </mxCell>
        <mxCell id="n3LbRHd9huFzIVp2TdFG-34" value="Multiband / Multisettigs Datafusion Model" style="html=1;outlineConnect=0;whiteSpace=wrap;fillColor=#f0a30a;shape=mxgraph.archimate3.application;appType=sysSw;archiType=square;fontColor=#000000;strokeColor=#BD7000;" vertex="1" parent="1">
          <mxGeometry x="1460" y="780" width="150" height="75" as="geometry" />
        </mxCell>
        <mxCell id="n3LbRHd9huFzIVp2TdFG-35" value="" style="group" vertex="1" connectable="0" parent="1">
          <mxGeometry x="1250" y="492.5" width="210" height="190" as="geometry" />
        </mxCell>
        <mxCell id="n3LbRHd9huFzIVp2TdFG-36" value="Radar Settings Optimisation" style="html=1;outlineConnect=0;whiteSpace=wrap;fillColor=#600035;shape=mxgraph.archimate3.application;appType=func;archiType=rounded;fontColor=#ffffff;strokeColor=#A50040;verticalAlign=top;" vertex="1" parent="n3LbRHd9huFzIVp2TdFG-35">
          <mxGeometry width="210" height="190" as="geometry" />
        </mxCell>
        <mxCell id="n3LbRHd9huFzIVp2TdFG-37" value="Algorithm selection" style="html=1;outlineConnect=0;whiteSpace=wrap;fillColor=#e3c800;shape=mxgraph.archimate3.application;appType=func;archiType=rounded;strokeColor=#B09500;fontColor=#000000;" vertex="1" parent="n3LbRHd9huFzIVp2TdFG-35">
          <mxGeometry x="10" y="30" width="190" height="30" as="geometry" />
        </mxCell>
        <mxCell id="n3LbRHd9huFzIVp2TdFG-38" value="Opimisation Module &lt;br&gt;Development" style="html=1;outlineConnect=0;whiteSpace=wrap;fillColor=#e3c800;shape=mxgraph.archimate3.application;appType=func;archiType=rounded;strokeColor=#B09500;fontColor=#000000;" vertex="1" parent="n3LbRHd9huFzIVp2TdFG-35">
          <mxGeometry x="10" y="70" width="190" height="30" as="geometry" />
        </mxCell>
        <mxCell id="n3LbRHd9huFzIVp2TdFG-39" value="Datafusion Module &lt;br&gt;Development" style="html=1;outlineConnect=0;whiteSpace=wrap;fillColor=#e3c800;shape=mxgraph.archimate3.application;appType=func;archiType=rounded;strokeColor=#B09500;fontColor=#000000;" vertex="1" parent="n3LbRHd9huFzIVp2TdFG-35">
          <mxGeometry x="10" y="110" width="190" height="30" as="geometry" />
        </mxCell>
        <mxCell id="n3LbRHd9huFzIVp2TdFG-40" value="Supports" style="edgeStyle=orthogonalEdgeStyle;rounded=0;orthogonalLoop=1;jettySize=auto;html=1;entryX=0;entryY=0.5;entryDx=0;entryDy=0;entryPerimeter=0;strokeColor=#1818FF;strokeWidth=4;endArrow=openThin;endFill=0;exitX=0.75;exitY=0;exitDx=0;exitDy=0;exitPerimeter=0;" edge="1" parent="1" source="n3LbRHd9huFzIVp2TdFG-6" target="n3LbRHd9huFzIVp2TdFG-36">
          <mxGeometry x="0.2195" relative="1" as="geometry">
            <mxPoint x="1240" y="770" as="sourcePoint" />
            <mxPoint x="1295" y="910" as="targetPoint" />
            <mxPoint as="offset" />
          </mxGeometry>
        </mxCell>
        <mxCell id="n3LbRHd9huFzIVp2TdFG-41" value="Produces" style="edgeStyle=orthogonalEdgeStyle;rounded=0;orthogonalLoop=1;jettySize=auto;html=1;strokeColor=#1818FF;strokeWidth=4;endArrow=openThin;endFill=0;entryX=0.25;entryY=0;entryDx=0;entryDy=0;entryPerimeter=0;" edge="1" parent="1" source="n3LbRHd9huFzIVp2TdFG-36" target="n3LbRHd9huFzIVp2TdFG-32">
          <mxGeometry relative="1" as="geometry">
            <mxPoint x="1470" y="1010" as="sourcePoint" />
            <mxPoint x="1470" y="1060" as="targetPoint" />
          </mxGeometry>
        </mxCell>
        <mxCell id="n3LbRHd9huFzIVp2TdFG-42" value="Produces" style="edgeStyle=orthogonalEdgeStyle;rounded=0;orthogonalLoop=1;jettySize=auto;html=1;strokeColor=#1818FF;strokeWidth=4;endArrow=openThin;endFill=0;entryX=0.25;entryY=0;entryDx=0;entryDy=0;entryPerimeter=0;exitX=1;exitY=0.75;exitDx=0;exitDy=0;exitPerimeter=0;" edge="1" parent="1" source="n3LbRHd9huFzIVp2TdFG-36" target="n3LbRHd9huFzIVp2TdFG-34">
          <mxGeometry relative="1" as="geometry">
            <mxPoint x="1420" y="670" as="sourcePoint" />
            <mxPoint x="1440" y="840" as="targetPoint" />
          </mxGeometry>
        </mxCell>
        <mxCell id="n3LbRHd9huFzIVp2TdFG-43" value="Hosts" style="edgeStyle=orthogonalEdgeStyle;rounded=0;orthogonalLoop=1;jettySize=auto;html=1;strokeColor=#1818FF;strokeWidth=4;endArrow=openThin;endFill=0;" edge="1" parent="1" source="n3LbRHd9huFzIVp2TdFG-6" target="n3LbRHd9huFzIVp2TdFG-32">
          <mxGeometry x="0.2911" y="-10" relative="1" as="geometry">
            <mxPoint x="1440" y="810" as="sourcePoint" />
            <mxPoint x="1560" y="1099" as="targetPoint" />
            <Array as="points">
              <mxPoint x="1350" y="765" />
              <mxPoint x="1350" y="740" />
            </Array>
            <mxPoint as="offset" />
          </mxGeometry>
        </mxCell>
        <mxCell id="n3LbRHd9huFzIVp2TdFG-44" value="Hosts" style="edgeStyle=orthogonalEdgeStyle;rounded=0;orthogonalLoop=1;jettySize=auto;html=1;strokeColor=#1818FF;strokeWidth=4;endArrow=openThin;endFill=0;" edge="1" parent="1" source="n3LbRHd9huFzIVp2TdFG-6" target="n3LbRHd9huFzIVp2TdFG-34">
          <mxGeometry x="0.6405" y="9" relative="1" as="geometry">
            <mxPoint x="1188" y="805" as="sourcePoint" />
            <mxPoint x="1520" y="805" as="targetPoint" />
            <Array as="points">
              <mxPoint x="1350" y="765" />
              <mxPoint x="1350" y="800" />
            </Array>
            <mxPoint as="offset" />
          </mxGeometry>
        </mxCell>
        <mxCell id="n3LbRHd9huFzIVp2TdFG-45" style="edgeStyle=orthogonalEdgeStyle;rounded=0;orthogonalLoop=1;jettySize=auto;html=1;entryX=0.75;entryY=1;entryDx=0;entryDy=0;entryPerimeter=0;" edge="1" parent="1" source="n3LbRHd9huFzIVp2TdFG-16" target="n3LbRHd9huFzIVp2TdFG-32">
          <mxGeometry relative="1" as="geometry" />
        </mxCell>
        <mxCell id="n3LbRHd9huFzIVp2TdFG-46" style="edgeStyle=orthogonalEdgeStyle;rounded=0;orthogonalLoop=1;jettySize=auto;html=1;entryX=0.5;entryY=0;entryDx=0;entryDy=0;entryPerimeter=0;" edge="1" parent="1" source="n3LbRHd9huFzIVp2TdFG-32" target="n3LbRHd9huFzIVp2TdFG-1">
          <mxGeometry relative="1" as="geometry">
            <Array as="points">
              <mxPoint x="1670" y="100" />
              <mxPoint x="895" y="100" />
            </Array>
          </mxGeometry>
        </mxCell>
        <mxCell id="n3LbRHd9huFzIVp2TdFG-47" style="edgeStyle=orthogonalEdgeStyle;rounded=0;orthogonalLoop=1;jettySize=auto;html=1;entryX=0.5;entryY=0;entryDx=0;entryDy=0;entryPerimeter=0;exitX=0.5;exitY=1;exitDx=0;exitDy=0;exitPerimeter=0;" edge="1" parent="1" source="n3LbRHd9huFzIVp2TdFG-49" target="n3LbRHd9huFzIVp2TdFG-67">
          <mxGeometry relative="1" as="geometry">
            <Array as="points">
              <mxPoint x="1520" y="430" />
              <mxPoint x="1035" y="430" />
            </Array>
          </mxGeometry>
        </mxCell>
        <mxCell id="n3LbRHd9huFzIVp2TdFG-48" value="" style="group;strokeColor=#E26305;fillColor=#a0522d;fontColor=#ffffff;" vertex="1" connectable="0" parent="1">
          <mxGeometry x="1420" y="215" width="200" height="165" as="geometry" />
        </mxCell>
        <mxCell id="n3LbRHd9huFzIVp2TdFG-49" value="RADAR RAW data" style="html=1;outlineConnect=0;whiteSpace=wrap;fillColor=light-dark(#a0522d, #753a1f);shape=mxgraph.archimate3.application;appType=artifact;archiType=square;fontColor=#ffffff;strokeColor=#FF8000;verticalAlign=top;" vertex="1" parent="n3LbRHd9huFzIVp2TdFG-48">
          <mxGeometry width="200" height="165" as="geometry" />
        </mxCell>
        <mxCell id="n3LbRHd9huFzIVp2TdFG-50" value="Range Compressed" style="html=1;outlineConnect=0;whiteSpace=wrap;fillColor=#a0522d;shape=mxgraph.archimate3.application;appType=artifact;archiType=square;fontColor=#ffffff;strokeColor=#6D1F00;" vertex="1" parent="n3LbRHd9huFzIVp2TdFG-48">
          <mxGeometry x="20" y="35" width="160" height="30" as="geometry" />
        </mxCell>
        <mxCell id="n3LbRHd9huFzIVp2TdFG-51" value="IMU measurements" style="html=1;outlineConnect=0;whiteSpace=wrap;fillColor=#a0522d;shape=mxgraph.archimate3.application;appType=artifact;archiType=square;fontColor=#ffffff;strokeColor=#6D1F00;" vertex="1" parent="n3LbRHd9huFzIVp2TdFG-48">
          <mxGeometry x="20" y="75" width="160" height="30" as="geometry" />
        </mxCell>
        <mxCell id="n3LbRHd9huFzIVp2TdFG-52" value="GNSS measurements" style="html=1;outlineConnect=0;whiteSpace=wrap;fillColor=#a0522d;shape=mxgraph.archimate3.application;appType=artifact;archiType=square;fontColor=#ffffff;strokeColor=#6D1F00;" vertex="1" parent="n3LbRHd9huFzIVp2TdFG-48">
          <mxGeometry x="20" y="115" width="160" height="30" as="geometry" />
        </mxCell>
        <mxCell id="n3LbRHd9huFzIVp2TdFG-53" value="" style="group" vertex="1" connectable="0" parent="1">
          <mxGeometry x="985" y="215" width="180" height="165" as="geometry" />
        </mxCell>
        <mxCell id="n3LbRHd9huFzIVp2TdFG-54" value="Airplane" style="html=1;outlineConnect=0;whiteSpace=wrap;fillColor=#76608a;shape=mxgraph.archimate3.application;appType=node;archiType=square;verticalAlign=top;fontColor=#ffffff;strokeColor=#432D57;" vertex="1" parent="n3LbRHd9huFzIVp2TdFG-53">
          <mxGeometry width="180" height="165" as="geometry" />
        </mxCell>
        <mxCell id="n3LbRHd9huFzIVp2TdFG-55" value="IMU" style="html=1;outlineConnect=0;whiteSpace=wrap;fillColor=#6d8764;shape=mxgraph.archimate3.application;appType=device;fontColor=#ffffff;strokeColor=#3A5431;" vertex="1" parent="n3LbRHd9huFzIVp2TdFG-53">
          <mxGeometry x="10" y="75" width="160" height="30" as="geometry" />
        </mxCell>
        <mxCell id="n3LbRHd9huFzIVp2TdFG-56" value="GNSS" style="html=1;outlineConnect=0;whiteSpace=wrap;fillColor=#6d8764;shape=mxgraph.archimate3.application;appType=device;fontColor=#ffffff;strokeColor=#3A5431;" vertex="1" parent="n3LbRHd9huFzIVp2TdFG-53">
          <mxGeometry x="10" y="115" width="160" height="30" as="geometry" />
        </mxCell>
        <mxCell id="n3LbRHd9huFzIVp2TdFG-57" value="RADAR" style="html=1;outlineConnect=0;whiteSpace=wrap;fillColor=#6d8764;shape=mxgraph.archimate3.application;appType=device;fontColor=#ffffff;strokeColor=#3A5431;" vertex="1" parent="n3LbRHd9huFzIVp2TdFG-53">
          <mxGeometry x="10" y="35" width="160" height="30" as="geometry" />
        </mxCell>
        <mxCell id="n3LbRHd9huFzIVp2TdFG-58" style="edgeStyle=orthogonalEdgeStyle;rounded=0;orthogonalLoop=1;jettySize=auto;html=1;entryX=0;entryY=0.5;entryDx=0;entryDy=0;entryPerimeter=0;" edge="1" parent="1" source="n3LbRHd9huFzIVp2TdFG-1" target="n3LbRHd9huFzIVp2TdFG-57">
          <mxGeometry relative="1" as="geometry" />
        </mxCell>
        <mxCell id="n3LbRHd9huFzIVp2TdFG-59" style="edgeStyle=orthogonalEdgeStyle;rounded=0;orthogonalLoop=1;jettySize=auto;html=1;" edge="1" parent="1" source="n3LbRHd9huFzIVp2TdFG-4" target="n3LbRHd9huFzIVp2TdFG-21">
          <mxGeometry relative="1" as="geometry" />
        </mxCell>
        <mxCell id="n3LbRHd9huFzIVp2TdFG-60" style="edgeStyle=orthogonalEdgeStyle;rounded=0;orthogonalLoop=1;jettySize=auto;html=1;entryX=0.75;entryY=0;entryDx=0;entryDy=0;entryPerimeter=0;" edge="1" parent="1" source="n3LbRHd9huFzIVp2TdFG-18" target="n3LbRHd9huFzIVp2TdFG-1">
          <mxGeometry relative="1" as="geometry">
            <Array as="points">
              <mxPoint x="1163" y="190" />
              <mxPoint x="933" y="190" />
            </Array>
          </mxGeometry>
        </mxCell>
        <mxCell id="n3LbRHd9huFzIVp2TdFG-61" style="edgeStyle=orthogonalEdgeStyle;rounded=0;orthogonalLoop=1;jettySize=auto;html=1;entryX=0;entryY=0.5;entryDx=0;entryDy=0;entryPerimeter=0;" edge="1" parent="1" source="n3LbRHd9huFzIVp2TdFG-57" target="n3LbRHd9huFzIVp2TdFG-50">
          <mxGeometry relative="1" as="geometry" />
        </mxCell>
        <mxCell id="n3LbRHd9huFzIVp2TdFG-62" style="edgeStyle=orthogonalEdgeStyle;rounded=0;orthogonalLoop=1;jettySize=auto;html=1;entryX=0;entryY=0.5;entryDx=0;entryDy=0;entryPerimeter=0;" edge="1" parent="1" source="n3LbRHd9huFzIVp2TdFG-55" target="n3LbRHd9huFzIVp2TdFG-51">
          <mxGeometry relative="1" as="geometry" />
        </mxCell>
        <mxCell id="n3LbRHd9huFzIVp2TdFG-63" style="edgeStyle=orthogonalEdgeStyle;rounded=0;orthogonalLoop=1;jettySize=auto;html=1;entryX=0;entryY=0.5;entryDx=0;entryDy=0;entryPerimeter=0;" edge="1" parent="1" source="n3LbRHd9huFzIVp2TdFG-56" target="n3LbRHd9huFzIVp2TdFG-52">
          <mxGeometry relative="1" as="geometry" />
        </mxCell>
        <mxCell id="n3LbRHd9huFzIVp2TdFG-64" value="RADAR Raw Data &lt;br&gt;Inflight Storage" style="html=1;outlineConnect=0;whiteSpace=wrap;fillColor=#6a00ff;shape=mxgraph.archimate3.application;appType=func;archiType=rounded;strokeColor=#3700CC;fontColor=#ffffff;" vertex="1" parent="1">
          <mxGeometry x="1195" y="390" width="160" height="30" as="geometry" />
        </mxCell>
        <mxCell id="n3LbRHd9huFzIVp2TdFG-65" value="Performs" style="edgeStyle=orthogonalEdgeStyle;rounded=0;orthogonalLoop=1;jettySize=auto;html=1;strokeColor=#1818FF;strokeWidth=4;endArrow=openThin;endFill=0;exitX=0.5;exitY=1;exitDx=0;exitDy=0;exitPerimeter=0;entryX=0;entryY=0.5;entryDx=0;entryDy=0;entryPerimeter=0;" edge="1" parent="1" source="n3LbRHd9huFzIVp2TdFG-54" target="n3LbRHd9huFzIVp2TdFG-64">
          <mxGeometry relative="1" as="geometry">
            <mxPoint x="1175" y="240" as="sourcePoint" />
            <mxPoint x="1250" y="240" as="targetPoint" />
          </mxGeometry>
        </mxCell>
        <mxCell id="n3LbRHd9huFzIVp2TdFG-66" style="edgeStyle=orthogonalEdgeStyle;rounded=0;orthogonalLoop=1;jettySize=auto;html=1;" edge="1" parent="1" source="n3LbRHd9huFzIVp2TdFG-67" target="n3LbRHd9huFzIVp2TdFG-6">
          <mxGeometry relative="1" as="geometry">
            <Array as="points">
              <mxPoint x="1075" y="630" />
              <mxPoint x="1075" y="630" />
            </Array>
          </mxGeometry>
        </mxCell>
        <mxCell id="n3LbRHd9huFzIVp2TdFG-67" value="Radar Raw Data &lt;br&gt;Interface" style="html=1;outlineConnect=0;whiteSpace=wrap;fillColor=#002B81;shape=mxgraph.archimate3.application;appType=interface;archiType=square;strokeColor=#00CEEE;fontColor=#ffffff;" vertex="1" parent="1">
          <mxGeometry x="960" y="450" width="150" height="30" as="geometry" />
        </mxCell>
        <mxCell id="n3LbRHd9huFzIVp2TdFG-68" value="Stores" style="edgeStyle=orthogonalEdgeStyle;rounded=0;orthogonalLoop=1;jettySize=auto;html=1;strokeColor=#1818FF;strokeWidth=4;endArrow=openThin;endFill=0;exitX=1;exitY=0.5;exitDx=0;exitDy=0;exitPerimeter=0;" edge="1" parent="1" source="n3LbRHd9huFzIVp2TdFG-64" target="n3LbRHd9huFzIVp2TdFG-49">
          <mxGeometry relative="1" as="geometry">
            <mxPoint x="1460" y="398" as="sourcePoint" />
            <mxPoint x="1643" y="493" as="targetPoint" />
            <Array as="points">
              <mxPoint x="1450" y="405" />
            </Array>
            <mxPoint as="offset" />
          </mxGeometry>
        </mxCell>
        <mxCell id="n3LbRHd9huFzIVp2TdFG-69" value="Provides" style="edgeStyle=orthogonalEdgeStyle;rounded=0;orthogonalLoop=1;jettySize=auto;html=1;strokeColor=#1818FF;strokeWidth=4;endArrow=openThin;endFill=0;" edge="1" parent="1" source="n3LbRHd9huFzIVp2TdFG-6" target="n3LbRHd9huFzIVp2TdFG-67">
          <mxGeometry x="-0.2" relative="1" as="geometry">
            <mxPoint x="1138" y="680" as="sourcePoint" />
            <mxPoint x="1260" y="598" as="targetPoint" />
            <mxPoint as="offset" />
            <Array as="points">
              <mxPoint x="1020" y="650" />
              <mxPoint x="1020" y="650" />
            </Array>
          </mxGeometry>
        </mxCell>
        <mxCell id="n3LbRHd9huFzIVp2TdFG-70" style="edgeStyle=orthogonalEdgeStyle;rounded=0;orthogonalLoop=1;jettySize=auto;html=1;" edge="1" parent="1" source="n3LbRHd9huFzIVp2TdFG-71" target="n3LbRHd9huFzIVp2TdFG-6">
          <mxGeometry relative="1" as="geometry">
            <Array as="points">
              <mxPoint x="1200" y="825" />
              <mxPoint x="1200" y="825" />
            </Array>
          </mxGeometry>
        </mxCell>
        <mxCell id="n3LbRHd9huFzIVp2TdFG-71" value="Final Radar Image" style="html=1;outlineConnect=0;whiteSpace=wrap;fillColor=#a0522d;shape=mxgraph.archimate3.application;appType=artifact;archiType=square;fontColor=#ffffff;strokeColor=#6D1F00;" vertex="1" parent="1">
          <mxGeometry x="1245" y="810" width="150" height="30" as="geometry" />
        </mxCell>
        <mxCell id="n3LbRHd9huFzIVp2TdFG-72" value="" style="edgeStyle=orthogonalEdgeStyle;rounded=0;orthogonalLoop=1;jettySize=auto;html=1;" edge="1" parent="1" source="n3LbRHd9huFzIVp2TdFG-6" target="n3LbRHd9huFzIVp2TdFG-73">
          <mxGeometry relative="1" as="geometry">
            <mxPoint x="1023" y="860" as="sourcePoint" />
            <mxPoint x="1160" y="1168" as="targetPoint" />
            <Array as="points">
              <mxPoint x="1000" y="1000" />
              <mxPoint x="1000" y="1000" />
            </Array>
          </mxGeometry>
        </mxCell>
        <mxCell id="n3LbRHd9huFzIVp2TdFG-73" value="RAW data" style="html=1;outlineConnect=0;whiteSpace=wrap;fillColor=#a0522d;shape=mxgraph.archimate3.application;appType=artifact;archiType=square;fontColor=#ffffff;strokeColor=#6D1F00;" vertex="1" parent="1">
          <mxGeometry x="970" y="1152.5" width="150" height="30" as="geometry" />
        </mxCell>
        <mxCell id="n3LbRHd9huFzIVp2TdFG-74" style="edgeStyle=orthogonalEdgeStyle;rounded=0;orthogonalLoop=1;jettySize=auto;html=1;" edge="1" parent="1" source="n3LbRHd9huFzIVp2TdFG-16" target="n3LbRHd9huFzIVp2TdFG-6">
          <mxGeometry relative="1" as="geometry">
            <Array as="points">
              <mxPoint x="1400" y="850" />
            </Array>
          </mxGeometry>
        </mxCell>
        <mxCell id="n3LbRHd9huFzIVp2TdFG-75" style="edgeStyle=orthogonalEdgeStyle;rounded=0;orthogonalLoop=1;jettySize=auto;html=1;" edge="1" parent="1" source="n3LbRHd9huFzIVp2TdFG-76" target="n3LbRHd9huFzIVp2TdFG-6">
          <mxGeometry relative="1" as="geometry">
            <Array as="points">
              <mxPoint x="1200" y="705" />
              <mxPoint x="1200" y="705" />
            </Array>
          </mxGeometry>
        </mxCell>
        <mxCell id="n3LbRHd9huFzIVp2TdFG-76" value="Radar Parameters" style="html=1;outlineConnect=0;whiteSpace=wrap;fillColor=#a0522d;shape=mxgraph.archimate3.application;appType=artifact;archiType=square;fontColor=#ffffff;strokeColor=#6D1F00;" vertex="1" parent="1">
          <mxGeometry x="1270" y="690" width="150" height="30" as="geometry" />
        </mxCell>
        <mxCell id="n3LbRHd9huFzIVp2TdFG-77" style="edgeStyle=orthogonalEdgeStyle;rounded=0;orthogonalLoop=1;jettySize=auto;html=1;exitX=0.5;exitY=1;exitDx=0;exitDy=0;exitPerimeter=0;" edge="1" parent="1" source="n3LbRHd9huFzIVp2TdFG-78" target="n3LbRHd9huFzIVp2TdFG-6">
          <mxGeometry relative="1" as="geometry" />
        </mxCell>
        <mxCell id="n3LbRHd9huFzIVp2TdFG-78" value="External datasource interface" style="html=1;outlineConnect=0;whiteSpace=wrap;fillColor=#002B81;shape=mxgraph.archimate3.application;appType=interface;archiType=square;strokeColor=#00CEEE;fontColor=#ffffff;" vertex="1" parent="1">
          <mxGeometry x="810" y="650" width="150" height="30" as="geometry" />
        </mxCell>
        <mxCell id="n3LbRHd9huFzIVp2TdFG-79" value="Provides" style="edgeStyle=orthogonalEdgeStyle;rounded=0;orthogonalLoop=1;jettySize=auto;html=1;strokeColor=#1818FF;strokeWidth=4;endArrow=openThin;endFill=0;exitX=0;exitY=0.25;exitDx=0;exitDy=0;exitPerimeter=0;" edge="1" parent="1" source="n3LbRHd9huFzIVp2TdFG-6" target="n3LbRHd9huFzIVp2TdFG-78">
          <mxGeometry x="-0.3846" y="3" relative="1" as="geometry">
            <mxPoint x="1030" y="680" as="sourcePoint" />
            <mxPoint x="1030" y="630" as="targetPoint" />
            <mxPoint as="offset" />
            <Array as="points">
              <mxPoint x="910" y="718" />
            </Array>
          </mxGeometry>
        </mxCell>
        <mxCell id="n3LbRHd9huFzIVp2TdFG-80" style="edgeStyle=orthogonalEdgeStyle;rounded=0;orthogonalLoop=1;jettySize=auto;html=1;" edge="1" parent="1" source="n3LbRHd9huFzIVp2TdFG-5" target="n3LbRHd9huFzIVp2TdFG-78">
          <mxGeometry relative="1" as="geometry">
            <Array as="points">
              <mxPoint x="845" y="650" />
              <mxPoint x="845" y="650" />
            </Array>
          </mxGeometry>
        </mxCell>
        <mxCell id="n3LbRHd9huFzIVp2TdFG-81" style="edgeStyle=orthogonalEdgeStyle;rounded=0;orthogonalLoop=1;jettySize=auto;html=1;entryX=0.75;entryY=1;entryDx=0;entryDy=0;entryPerimeter=0;" edge="1" parent="1" source="n3LbRHd9huFzIVp2TdFG-73" target="n3LbRHd9huFzIVp2TdFG-34">
          <mxGeometry relative="1" as="geometry">
            <Array as="points">
              <mxPoint x="1045" y="1220" />
              <mxPoint x="1573" y="1220" />
            </Array>
          </mxGeometry>
        </mxCell>
        <mxCell id="n3LbRHd9huFzIVp2TdFG-82" value="Provides" style="edgeStyle=orthogonalEdgeStyle;rounded=0;orthogonalLoop=1;jettySize=auto;html=1;strokeColor=#1818FF;strokeWidth=4;endArrow=openThin;endFill=0;exitX=0.5;exitY=1;exitDx=0;exitDy=0;exitPerimeter=0;" edge="1" parent="1" source="n3LbRHd9huFzIVp2TdFG-7" target="n3LbRHd9huFzIVp2TdFG-5">
          <mxGeometry relative="1" as="geometry">
            <mxPoint x="1030" y="680" as="sourcePoint" />
            <mxPoint x="1030" y="630" as="targetPoint" />
          </mxGeometry>
        </mxCell>
        <mxCell id="n3LbRHd9huFzIVp2TdFG-83" value="" style="group" vertex="1" connectable="0" parent="1">
          <mxGeometry x="260" y="280" width="435" height="227" as="geometry" />
        </mxCell>
        <mxCell id="n3LbRHd9huFzIVp2TdFG-84" value="Keep in Mind" style="shape=note;whiteSpace=wrap;html=1;backgroundOutline=1;darkOpacity=0.05;align=center;verticalAlign=top;fillColor=#9A8A00;fontColor=#000000;strokeColor=#504500;" vertex="1" parent="n3LbRHd9huFzIVp2TdFG-83">
          <mxGeometry width="435" height="227" as="geometry" />
        </mxCell>
        <mxCell id="n3LbRHd9huFzIVp2TdFG-85" value="Intelligenza Artificiale" style="html=1;outlineConnect=0;whiteSpace=wrap;fillColor=#e6d0de;shape=mxgraph.archimate3.application;appType=goal;archiType=oct;strokeColor=#996185;gradientColor=#d5739d;shadow=1;" vertex="1" parent="n3LbRHd9huFzIVp2TdFG-83">
          <mxGeometry x="9.666666666666668" y="7.950483091787439" width="154.66666666666669" height="35.64009661835749" as="geometry" />
        </mxCell>
        <mxCell id="n3LbRHd9huFzIVp2TdFG-86" value="Sensori ad &lt;br&gt;alta risoluzione" style="html=1;outlineConnect=0;whiteSpace=wrap;fillColor=#e6d0de;shape=mxgraph.archimate3.application;appType=goal;archiType=oct;strokeColor=#996185;gradientColor=#d5739d;shadow=1;" vertex="1" parent="n3LbRHd9huFzIVp2TdFG-83">
          <mxGeometry x="9.666666666666668" y="51.815217391304344" width="154.66666666666669" height="35.64009661835749" as="geometry" />
        </mxCell>
        <mxCell id="n3LbRHd9huFzIVp2TdFG-87" value="Elaborazione Digitale&amp;nbsp;&lt;br&gt;del Segnale" style="html=1;outlineConnect=0;whiteSpace=wrap;fillColor=#e6d0de;shape=mxgraph.archimate3.application;appType=goal;archiType=oct;strokeColor=#996185;gradientColor=#d5739d;shadow=1;" vertex="1" parent="n3LbRHd9huFzIVp2TdFG-83">
          <mxGeometry x="9.666666666666668" y="95.67995169082126" width="154.66666666666669" height="35.64009661835749" as="geometry" />
        </mxCell>
        <mxCell id="n3LbRHd9huFzIVp2TdFG-88" value="Sistemi Embedded e&lt;br&gt;Progettazione custom" style="html=1;outlineConnect=0;whiteSpace=wrap;fillColor=#e6d0de;shape=mxgraph.archimate3.application;appType=goal;archiType=oct;strokeColor=#996185;gradientColor=#d5739d;shadow=1;" vertex="1" parent="n3LbRHd9huFzIVp2TdFG-83">
          <mxGeometry x="9.666666666666668" y="139.54468599033817" width="154.66666666666669" height="35.64009661835749" as="geometry" />
        </mxCell>
        <mxCell id="n3LbRHd9huFzIVp2TdFG-89" value="Validazione degli&lt;br&gt;Algoritmi" style="html=1;outlineConnect=0;whiteSpace=wrap;fillColor=#e6d0de;shape=mxgraph.archimate3.application;appType=goal;archiType=oct;strokeColor=#996185;gradientColor=#d5739d;shadow=1;" vertex="1" parent="n3LbRHd9huFzIVp2TdFG-83">
          <mxGeometry x="9.666666666666668" y="183.40942028985506" width="154.66666666666669" height="35.64009661835749" as="geometry" />
        </mxCell>
        <mxCell id="n3LbRHd9huFzIVp2TdFG-90" value="Miglioramento della precisione" style="html=1;outlineConnect=0;whiteSpace=wrap;shape=mxgraph.archimate3.application;appType=outcome;archiType=oct;fillColor=#6a00ff;strokeColor=#3700CC;fontColor=#ffffff;shadow=1;" vertex="1" parent="n3LbRHd9huFzIVp2TdFG-83">
          <mxGeometry x="248.91666666666666" y="51.13531400966183" width="145" height="37.01086956521739" as="geometry" />
        </mxCell>
        <mxCell id="n3LbRHd9huFzIVp2TdFG-91" value="Miglioramento della velocità di elaborazione" style="html=1;outlineConnect=0;whiteSpace=wrap;shape=mxgraph.archimate3.application;appType=outcome;archiType=oct;fillColor=#6a00ff;strokeColor=#3700CC;fontColor=#ffffff;shadow=1;" vertex="1" parent="n3LbRHd9huFzIVp2TdFG-83">
          <mxGeometry x="248.91666666666666" y="94.30917874396135" width="145" height="37.01086956521739" as="geometry" />
        </mxCell>
        <mxCell id="n3LbRHd9huFzIVp2TdFG-92" value="Maggiore flessibilità" style="html=1;outlineConnect=0;whiteSpace=wrap;shape=mxgraph.archimate3.application;appType=outcome;archiType=oct;fillColor=#6a00ff;strokeColor=#3700CC;fontColor=#ffffff;shadow=1;" vertex="1" parent="n3LbRHd9huFzIVp2TdFG-83">
          <mxGeometry x="248.91666666666666" y="138.17391304347825" width="145" height="37.01086956521739" as="geometry" />
        </mxCell>
        <mxCell id="n3LbRHd9huFzIVp2TdFG-93" style="edgeStyle=orthogonalEdgeStyle;rounded=0;orthogonalLoop=1;jettySize=auto;html=1;exitX=0.5;exitY=1;exitDx=0;exitDy=0;exitPerimeter=0;entryX=1;entryY=0.5;entryDx=0;entryDy=0;entryPerimeter=0;" edge="1" parent="1" source="n3LbRHd9huFzIVp2TdFG-32" target="n3LbRHd9huFzIVp2TdFG-34">
          <mxGeometry relative="1" as="geometry" />
        </mxCell>
        <mxCell id="n3LbRHd9huFzIVp2TdFG-94" value="" style="group" vertex="1" connectable="0" parent="1">
          <mxGeometry x="610" y="690" width="170" height="530" as="geometry" />
        </mxCell>
        <mxCell id="n3LbRHd9huFzIVp2TdFG-95" value="Constraint" style="html=1;outlineConnect=0;whiteSpace=wrap;fillColor=#e51400;shape=mxgraph.archimate3.constraint;fontColor=#ffffff;strokeColor=#B20000;" vertex="1" parent="n3LbRHd9huFzIVp2TdFG-94">
          <mxGeometry x="5" width="160" height="28.75" as="geometry" />
        </mxCell>
        <mxCell id="n3LbRHd9huFzIVp2TdFG-96" value="Requirement" style="html=1;outlineConnect=0;whiteSpace=wrap;fillColor=#e3c800;shape=mxgraph.archimate3.requirement;fontColor=#000000;strokeColor=#B09500;" vertex="1" parent="n3LbRHd9huFzIVp2TdFG-94">
          <mxGeometry x="5" y="40" width="160" height="28.75" as="geometry" />
        </mxCell>
        <mxCell id="n3LbRHd9huFzIVp2TdFG-97" value="Interface" style="html=1;outlineConnect=0;whiteSpace=wrap;fillColor=#002B81;shape=mxgraph.archimate3.application;appType=interface;archiType=square;strokeColor=#00CEEE;fontColor=#ffffff;" vertex="1" parent="n3LbRHd9huFzIVp2TdFG-94">
          <mxGeometry y="160" width="160" height="30" as="geometry" />
        </mxCell>
        <mxCell id="n3LbRHd9huFzIVp2TdFG-98" value="data artefact" style="html=1;outlineConnect=0;whiteSpace=wrap;fillColor=#a0522d;shape=mxgraph.archimate3.application;appType=artifact;archiType=square;fontColor=#ffffff;strokeColor=#6D1F00;" vertex="1" parent="n3LbRHd9huFzIVp2TdFG-94">
          <mxGeometry y="200" width="160" height="30" as="geometry" />
        </mxCell>
        <mxCell id="n3LbRHd9huFzIVp2TdFG-99" value="data flow" style="edgeStyle=orthogonalEdgeStyle;rounded=0;orthogonalLoop=1;jettySize=auto;html=1;" edge="1" parent="n3LbRHd9huFzIVp2TdFG-94">
          <mxGeometry relative="1" as="geometry">
            <mxPoint y="260" as="sourcePoint" />
            <mxPoint x="160" y="260" as="targetPoint" />
          </mxGeometry>
        </mxCell>
        <mxCell id="n3LbRHd9huFzIVp2TdFG-100" value="Functional flow" style="edgeStyle=orthogonalEdgeStyle;rounded=0;orthogonalLoop=1;jettySize=auto;html=1;strokeColor=#1818FF;strokeWidth=4;endArrow=openThin;endFill=0;" edge="1" parent="n3LbRHd9huFzIVp2TdFG-94">
          <mxGeometry x="-0.1349" relative="1" as="geometry">
            <mxPoint as="offset" />
            <mxPoint y="290" as="sourcePoint" />
            <mxPoint x="160" y="290" as="targetPoint" />
          </mxGeometry>
        </mxCell>
        <mxCell id="n3LbRHd9huFzIVp2TdFG-101" value="Macro function" style="html=1;outlineConnect=0;whiteSpace=wrap;fillColor=#600035;shape=mxgraph.archimate3.application;appType=func;archiType=rounded;fontColor=#ffffff;strokeColor=#A50040;verticalAlign=top;" vertex="1" parent="n3LbRHd9huFzIVp2TdFG-94">
          <mxGeometry y="370" width="160" height="30" as="geometry" />
        </mxCell>
        <mxCell id="n3LbRHd9huFzIVp2TdFG-102" value="Operational Function" style="html=1;outlineConnect=0;whiteSpace=wrap;fillColor=#d80073;shape=mxgraph.archimate3.application;appType=func;archiType=rounded;fontColor=#ffffff;strokeColor=#A50040;" vertex="1" parent="n3LbRHd9huFzIVp2TdFG-94">
          <mxGeometry y="410" width="160" height="30" as="geometry" />
        </mxCell>
        <mxCell id="n3LbRHd9huFzIVp2TdFG-103" value="Development Function" style="html=1;outlineConnect=0;whiteSpace=wrap;fillColor=#e3c800;shape=mxgraph.archimate3.application;appType=func;archiType=rounded;fontColor=#000000;strokeColor=#B09500;" vertex="1" parent="n3LbRHd9huFzIVp2TdFG-94">
          <mxGeometry y="452.5" width="160" height="30" as="geometry" />
        </mxCell>
        <mxCell id="n3LbRHd9huFzIVp2TdFG-104" value="Software System" style="html=1;outlineConnect=0;whiteSpace=wrap;fillColor=#f0a30a;shape=mxgraph.archimate3.application;appType=sysSw;archiType=square;fontColor=#000000;strokeColor=#BD7000;" vertex="1" parent="n3LbRHd9huFzIVp2TdFG-94">
          <mxGeometry y="500" width="160" height="30" as="geometry" />
        </mxCell>
        <mxCell id="n3LbRHd9huFzIVp2TdFG-105" value="Flight related function" style="html=1;outlineConnect=0;whiteSpace=wrap;fillColor=#6a00ff;shape=mxgraph.archimate3.application;appType=func;archiType=rounded;strokeColor=#3700CC;fontColor=#ffffff;" vertex="1" parent="n3LbRHd9huFzIVp2TdFG-94">
          <mxGeometry y="320" width="160" height="30" as="geometry" />
        </mxCell>
        <mxCell id="n3LbRHd9huFzIVp2TdFG-106" value="Node" style="html=1;outlineConnect=0;whiteSpace=wrap;shape=mxgraph.archimate3.application;appType=node;archiType=square;fillColor=#76608a;strokeColor=#432D57;fontColor=#ffffff;" vertex="1" parent="n3LbRHd9huFzIVp2TdFG-94">
          <mxGeometry y="81.25" width="160" height="27.5" as="geometry" />
        </mxCell>
        <mxCell id="n3LbRHd9huFzIVp2TdFG-107" value="Device" style="html=1;outlineConnect=0;whiteSpace=wrap;fillColor=#6d8764;shape=mxgraph.archimate3.application;appType=device;fontColor=#ffffff;strokeColor=#3A5431;" vertex="1" parent="n3LbRHd9huFzIVp2TdFG-94">
          <mxGeometry y="120" width="160" height="30" as="geometry" />
        </mxCell>
      </root>
    </mxGraphModel>
  </diagram>
</mxfile>
